<?xml version="1.0" encoding="utf-8"?>
<!-- Generator: Adobe Illustrator 25.4.1, SVG Export Plug-In . SVG Version: 6.00 Build 0)  -->
<svg version="1.1" id="Layer_1" xmlns="http://www.w3.org/2000/svg" xmlns:xlink="http://www.w3.org/1999/xlink" x="0px" y="0px"
	 viewBox="0 0 348 104" style="enable-background:new 0 0 348 104;" xml:space="preserve">
<style type="text/css">
	.st0{display:none;}
	.st1{display:inline;fill:#B42322;}
	.st2{display:inline;opacity:0.54;}
	.st3{clip-path:url(#SVGID_00000048500533620528466710000014347182854506655665_);}
	.st4{clip-path:url(#SVGID_00000013150930450109592010000006476182255224085636_);}
	.st5{clip-path:url(#SVGID_00000039135700765533527760000005804738771650049193_);}
	.st6{display:inline;opacity:0.9;}
	.st7{clip-path:url(#SVGID_00000018917918794841280010000005622759075315946666_);}
	.st8{fill-rule:evenodd;clip-rule:evenodd;fill:url(#SVGID_00000098937903273575460570000016057019127594770561_);}
	.st9{fill:#6D6E71;}
	.st10{fill:#F13E27;}
	.st11{fill:#231F20;}
</style>
<g class="st0">
	<path class="st1" d="M-102.4-72.4c0-0.2,0-0.3,0-0.5c0-0.1,0-0.2,0-0.3v-34.1h-0.3c-6.5,0-11.7,5.3-11.7,11.8v19.1l0,0v3.3
		c0,0.1,0,0.1,0,0.2s0,0.1,0,0.2v0.4c-0.3,4.6-4.2,8.3-8.9,8.3c-4.7,0-8.6-3.7-8.9-8.3v-6.1l0,0v-17.2c0-6.5-5.3-11.8-11.8-11.8
		h-0.3v35.5l0,0c0.5,11.1,9.7,20,21,20c11.2,0,20.4-8.8,20.9-19.8l0,0V-72.4z"/>
	<path class="st1" d="M-85.5-79.6l19.1-27.6h-9.1c-3.5,0-6.7,1.7-8.6,4.5l-15.8,23l15.8,23c1.9,2.8,5.2,4.5,8.6,4.5h9.1L-85.5-79.6z
		"/>
	<path class="st1" d="M-102.4-72.4c0-0.2,0-0.3,0-0.5c0-0.1,0-0.2,0-0.3v-34.1h-0.3c-6.5,0-11.7,5.3-11.7,11.8v19.1l0,0v3.3
		c0,0.1,0,0.1,0,0.2s0,0.1,0,0.2v0.4c-0.3,4.6-4.2,8.3-8.9,8.3c-4.7,0-8.6-3.7-8.9-8.3v-6.1l0,0v-17.2c0-6.5-5.3-11.8-11.8-11.8
		h-0.3v35.5l0,0c0.5,11.1,9.7,20,21,20c11.2,0,20.4-8.8,20.9-19.8l0,0V-72.4z"/>
	<path class="st1" d="M-85.5-79.6l19.1-27.6h-9.1c-3.5,0-6.7,1.7-8.6,4.5l-15.8,23l15.8,23c1.9,2.8,5.2,4.5,8.6,4.5h9.1L-85.5-79.6z
		"/>
	<g class="st2">
		<g>
			<g>
				<defs>
					<rect id="SVGID_1_" x="-94.2" y="-79.7" width="14.8" height="17.3"/>
				</defs>
				<clipPath id="SVGID_00000155126126057827656650000001415169015838819733_">
					<use xlink:href="#SVGID_1_"  style="overflow:visible;"/>
				</clipPath>
				<g style="clip-path:url(#SVGID_00000155126126057827656650000001415169015838819733_);">
					<g>
						<defs>
							<path id="SVGID_00000110441601006323661520000011921617161244737187_" d="M-85.5-79.6c-3.4,4.7-8.7,8.3-8.7,8.3l5.9,8.8
								l8.8-8.2L-85.5-79.6z"/>
						</defs>
						<clipPath id="SVGID_00000044874588215979208560000015336990756967355522_">
							<use xlink:href="#SVGID_00000110441601006323661520000011921617161244737187_"  style="overflow:visible;"/>
						</clipPath>
						<g style="clip-path:url(#SVGID_00000044874588215979208560000015336990756967355522_);">
							<g>
								<g>
									<defs>
										<rect id="SVGID_00000072999520649875745520000003122479040292578998_" x="-94.3" y="-79.7" width="14.8" height="17.1"/>
									</defs>
									<clipPath id="SVGID_00000170266585862148012680000012806595372284169915_">
										<use xlink:href="#SVGID_00000072999520649875745520000003122479040292578998_"  style="overflow:visible;"/>
									</clipPath>
									<g style="clip-path:url(#SVGID_00000170266585862148012680000012806595372284169915_);">
										
											<image style="overflow:visible;enable-background:new    ;" width="67" height="75" xlink:href="7A4DB865.jpeg"  transform="matrix(0.2221 0 0 0.2221 -94.32 -79.5284)">
										</image>
									</g>
								</g>
							</g>
						</g>
					</g>
				</g>
			</g>
		</g>
	</g>
	<g class="st6">
		<g>
			<g>
				<defs>
					<rect id="SVGID_00000113322189907939778310000011376901154948467863_" x="-136.4" y="-66.2" width="32.9" height="14.3"/>
				</defs>
				<clipPath id="SVGID_00000150802917475458764470000004157089034025076892_">
					<use xlink:href="#SVGID_00000113322189907939778310000011376901154948467863_"  style="overflow:visible;"/>
				</clipPath>
				<g style="clip-path:url(#SVGID_00000150802917475458764470000004157089034025076892_);">
					<g>
						
							<linearGradient id="SVGID_00000094609968907745740630000013888767562868886682_" gradientUnits="userSpaceOnUse" x1="-119.95" y1="139.8911" x2="-119.95" y2="174.7182" gradientTransform="matrix(1 0 0 -1 0 106)">
							<stop  offset="0" style="stop-color:#FFFFFF"/>
							<stop  offset="0.3633" style="stop-color:#FDFDFD"/>
							<stop  offset="0.4982" style="stop-color:#F6F6F6"/>
							<stop  offset="0.595" style="stop-color:#EAEAEA"/>
							<stop  offset="0.6738" style="stop-color:#D9D9D9"/>
							<stop  offset="0.7414" style="stop-color:#C3C3C3"/>
							<stop  offset="0.8014" style="stop-color:#A8A8A8"/>
							<stop  offset="0.8559" style="stop-color:#878787"/>
							<stop  offset="0.9059" style="stop-color:#616161"/>
							<stop  offset="0.9525" style="stop-color:#353535"/>
							<stop  offset="0.9941" style="stop-color:#070707"/>
							<stop  offset="1" style="stop-color:#000000"/>
						</linearGradient>
						
							<path id="SVGID_00000042017783643497981740000005484502848546956436_" style="fill-rule:evenodd;clip-rule:evenodd;fill:url(#SVGID_00000094609968907745740630000013888767562868886682_);" d="
							M-123.4-51.9c9.2-0.1,17-5.9,19.9-14.3l0,0c0,0-13.4,9.8-32.9,9.8C-133.1-54.4-130-52-123.4-51.9z"/>
					</g>
				</g>
			</g>
		</g>
	</g>
</g>
<g>
	<rect x="5.6" y="23.3" class="st9" width="34.6" height="5.4"/>
	<rect x="5.6" y="36.3" class="st9" width="34.6" height="5.4"/>
	<rect x="5.6" y="49.3" class="st9" width="34.6" height="5.4"/>
	<rect x="5.6" y="62.3" class="st9" width="34.6" height="5.4"/>
	<rect x="5.6" y="75.3" class="st9" width="34.6" height="5.4"/>
</g>
<g>
	<path class="st10" d="M59.5,46.2c-1.7,0-3.4-0.3-4.9-0.9s-2.8-1.4-3.9-2.4c-1.1-1-2-2.3-2.6-3.7c-0.6-1.4-0.9-3-0.9-4.7
		s0.3-3.2,0.9-4.7c0.6-1.4,1.5-2.7,2.6-3.7c1.1-1,2.4-1.9,3.9-2.4c1.5-0.6,3.1-0.9,4.9-0.9c1.9,0,3.6,0.3,5.1,1
		c1.5,0.6,2.9,1.6,3.9,2.8l-2.7,2.6c-0.8-0.9-1.8-1.5-2.8-2c-1-0.4-2.1-0.7-3.3-0.7c-1.2,0-2.3,0.2-3.3,0.6c-1,0.4-1.9,0.9-2.6,1.6
		c-0.7,0.7-1.3,1.6-1.7,2.5s-0.6,2-0.6,3.2c0,1.2,0.2,2.2,0.6,3.2s1,1.8,1.7,2.5c0.7,0.7,1.6,1.3,2.6,1.6c1,0.4,2.1,0.6,3.3,0.6
		c1.2,0,2.3-0.2,3.3-0.7s2-1.1,2.8-2l2.7,2.6c-1.1,1.2-2.4,2.2-3.9,2.8C63.1,45.9,61.3,46.2,59.5,46.2z"/>
	<path class="st10" d="M68.9,45.9l10.3-22.6h4.2l10.3,22.6h-4.5l-8.9-20.4h1.7l-8.8,20.4H68.9z M73.7,40.7l1.1-3.3h12.4l1.1,3.3
		H73.7z"/>
	<path class="st10" d="M103.8,46.2c-1.8,0-3.5-0.3-5.1-0.8s-2.9-1.2-3.9-2l1.5-3.3c0.9,0.7,2.1,1.3,3.4,1.8c1.4,0.5,2.7,0.7,4.2,0.7
		c1.2,0,2.2-0.1,2.9-0.4s1.3-0.6,1.6-1s0.5-0.9,0.5-1.5c0-0.7-0.3-1.2-0.8-1.7s-1.2-0.8-1.9-1s-1.7-0.5-2.7-0.7
		c-1-0.2-1.9-0.5-2.9-0.8c-1-0.3-1.9-0.7-2.7-1.1c-0.8-0.5-1.4-1.1-1.9-1.9c-0.5-0.8-0.8-1.8-0.8-3c0-1.2,0.3-2.4,1-3.4
		c0.7-1,1.7-1.8,3-2.5c1.4-0.6,3.1-0.9,5.2-0.9c1.4,0,2.7,0.2,4.1,0.5c1.4,0.3,2.5,0.8,3.5,1.5l-1.3,3.3c-1-0.6-2.1-1-3.2-1.3
		c-1.1-0.3-2.1-0.4-3.1-0.4c-1.2,0-2.1,0.1-2.9,0.4c-0.7,0.3-1.3,0.6-1.6,1.1c-0.3,0.5-0.5,1-0.5,1.6c0,0.7,0.2,1.2,0.7,1.7
		c0.5,0.4,1.1,0.7,1.9,1c0.8,0.2,1.7,0.5,2.7,0.7s2,0.5,2.9,0.8c1,0.3,1.9,0.6,2.7,1.1c0.8,0.5,1.4,1.1,1.9,1.8s0.7,1.8,0.7,2.9
		c0,1.2-0.3,2.3-1,3.3c-0.7,1-1.7,1.8-3.1,2.5S105.9,46.2,103.8,46.2z"/>
	<path class="st10" d="M114,45.9l10.3-22.6h4.2l10.3,22.6h-4.5l-8.9-20.4h1.7l-8.8,20.4H114z M118.8,40.7l1.1-3.3h12.4l1.1,3.3
		H118.8z"/>
	<path d="M142.4,45.9V23.3h9.9c2.6,0,4.5,0.5,5.9,1.5c1.4,1,2.1,2.4,2.1,4.3c0,1.2-0.3,2.3-0.9,3.1c-0.6,0.8-1.4,1.5-2.4,1.9
		c-1,0.4-2.1,0.6-3.3,0.6l0.6-0.8c1.5,0,2.7,0.2,3.8,0.7c1.1,0.4,1.9,1.1,2.5,2c0.6,0.9,0.9,2,0.9,3.2c0,1.9-0.7,3.4-2.1,4.5
		c-1.4,1.1-3.6,1.6-6.5,1.6H142.4z M144.8,43.9h8.1c2,0,3.5-0.3,4.6-1c1.1-0.7,1.6-1.8,1.6-3.2c0-1.5-0.5-2.5-1.6-3.2
		c-1.1-0.7-2.6-1-4.6-1h-8.3v-2h7.6c1.8,0,3.3-0.3,4.3-1c1-0.7,1.5-1.7,1.5-3.1c0-1.4-0.5-2.4-1.5-3.1c-1-0.7-2.4-1-4.3-1h-7.3V43.9
		z"/>
	<path d="M169.5,43.8h13.8v2.1h-16.2V23.3h15.7v2.1h-13.3V43.8z M169.2,33.4h12.1v2h-12.1V33.4z"/>
	<path d="M189,45.9V23.3h2.4v20.5h12.8v2.1H189z"/>
	<path d="M213,45.9l-10.1-22.6h2.6l9.5,21.3h-1.4l9.6-21.3h2.5l-10.1,22.6H213z"/>
	<path d="M231.3,43.8h13.8v2.1h-16.2V23.3h15.7v2.1h-13.3V43.8z M231,33.4h12.1v2H231V33.4z"/>
	<path d="M250.8,45.9V23.3h9.3c2.4,0,4.6,0.5,6.4,1.4c1.8,1,3.3,2.3,4.3,4c1,1.7,1.5,3.7,1.5,5.9c0,2.2-0.5,4.2-1.5,5.9
		c-1,1.7-2.5,3-4.3,4c-1.8,1-4,1.4-6.4,1.4H250.8z M253.2,43.8h6.8c2,0,3.8-0.4,5.3-1.2c1.5-0.8,2.7-1.9,3.5-3.3
		c0.8-1.4,1.2-3,1.2-4.8c0-1.8-0.4-3.4-1.2-4.8c-0.8-1.4-2-2.5-3.5-3.2c-1.5-0.8-3.3-1.2-5.3-1.2h-6.8V43.8z"/>
	<path d="M280.2,43.8H294v2.1h-16.2V23.3h15.7v2.1h-13.3V43.8z M280,33.4h12.1v2H280V33.4z"/>
	<path d="M299.7,45.9V23.3h8.6c1.9,0,3.6,0.3,5,0.9s2.5,1.5,3.2,2.6c0.8,1.2,1.1,2.5,1.1,4.2c0,1.6-0.4,3-1.1,4.1
		c-0.8,1.2-1.8,2-3.2,2.6s-3.1,0.9-5,0.9H301l1.1-1.1v8.3H299.7z M302.1,37.8l-1.1-1.1h7.2c2.3,0,4-0.5,5.2-1.5
		c1.2-1,1.8-2.4,1.8-4.2c0-1.8-0.6-3.2-1.8-4.2c-1.2-1-2.9-1.5-5.2-1.5H301l1.1-1.1V37.8z M315.3,45.9l-5.9-8.2h2.6l5.9,8.2H315.3z"
		/>
	<path d="M325.8,43.8h13.8v2.1h-16.2V23.3h15.7v2.1h-13.3V43.8z M325.5,33.4h12.1v2h-12.1V33.4z"/>
</g>
<g>
	<rect x="47.2" y="57.9" class="st11" width="292.5" height="1"/>
</g>
<g>
	<path d="M47.2,80.6V67.4H53c1.4,0,2.7,0.3,3.8,0.8c1.1,0.6,1.9,1.3,2.5,2.3c0.6,1,0.9,2.2,0.9,3.5c0,1.3-0.3,2.5-0.9,3.5
		c-0.6,1-1.5,1.8-2.5,2.3c-1.1,0.6-2.4,0.8-3.8,0.8H47.2z M49.7,78.6h3.2c1,0,1.9-0.2,2.6-0.6c0.7-0.4,1.3-0.9,1.7-1.6
		c0.4-0.7,0.6-1.5,0.6-2.4c0-0.9-0.2-1.7-0.6-2.4c-0.4-0.7-1-1.2-1.7-1.6s-1.6-0.6-2.6-0.6h-3.2V78.6z"/>
	<path d="M69.9,80.8c-1,0-2-0.2-2.9-0.5c-0.9-0.3-1.6-0.8-2.3-1.4c-0.6-0.6-1.1-1.3-1.5-2.2c-0.4-0.8-0.5-1.7-0.5-2.7
		c0-1,0.2-1.9,0.5-2.7c0.4-0.8,0.9-1.5,1.5-2.2c0.6-0.6,1.4-1.1,2.3-1.4s1.8-0.5,2.8-0.5c1,0,2,0.2,2.9,0.5c0.9,0.3,1.6,0.8,2.3,1.4
		c0.6,0.6,1.1,1.3,1.5,2.2C76.8,72.1,77,73,77,74c0,1-0.2,1.9-0.5,2.7c-0.4,0.8-0.9,1.6-1.5,2.2c-0.6,0.6-1.4,1.1-2.3,1.4
		C71.8,80.7,70.9,80.8,69.9,80.8z M69.9,78.7c0.7,0,1.3-0.1,1.9-0.3s1.1-0.6,1.5-1s0.7-0.9,1-1.5c0.2-0.6,0.4-1.2,0.4-1.9
		c0-0.7-0.1-1.3-0.4-1.9c-0.2-0.6-0.6-1.1-1-1.5s-0.9-0.8-1.5-1s-1.2-0.3-1.9-0.3c-0.7,0-1.3,0.1-1.9,0.3c-0.6,0.2-1.1,0.6-1.5,1
		s-0.8,0.9-1,1.5c-0.2,0.6-0.4,1.2-0.4,1.9c0,0.7,0.1,1.3,0.4,1.9c0.2,0.6,0.6,1.1,1,1.5c0.4,0.4,0.9,0.8,1.5,1S69.2,78.7,69.9,78.7
		z"/>
	<path d="M80.4,80.6V67.4h2l5.8,9.7h-1.1l5.7-9.7h2l0,13.3h-2.3l0-9.6h0.5l-4.9,8.1h-1.1L82.2,71h0.6v9.6H80.4z"/>
	<path d="M99.3,80.6V67.4h6.2c1.6,0,2.8,0.3,3.6,0.9c0.8,0.6,1.3,1.5,1.3,2.5c0,0.7-0.2,1.3-0.5,1.8c-0.3,0.5-0.8,0.9-1.3,1.2
		c-0.6,0.3-1.1,0.4-1.8,0.4l0.3-0.7c0.7,0,1.4,0.1,2,0.4c0.6,0.3,1.1,0.7,1.4,1.2c0.3,0.5,0.5,1.2,0.5,1.9c0,1.1-0.4,2-1.3,2.7
		c-0.9,0.6-2.2,0.9-3.9,0.9H99.3z M101.7,78.7h4c0.9,0,1.6-0.2,2.1-0.5c0.5-0.3,0.7-0.8,0.7-1.5c0-0.7-0.2-1.1-0.7-1.5
		c-0.5-0.3-1.2-0.5-2.1-0.5h-4.2V73h3.7c0.9,0,1.5-0.2,2-0.5c0.5-0.3,0.7-0.8,0.7-1.4c0-0.6-0.2-1.1-0.7-1.4c-0.5-0.3-1.1-0.5-2-0.5
		h-3.5V78.7z"/>
	<path d="M114.5,80.6V67.4h2.5v13.3H114.5z"/>
	<path d="M125.1,80.6l-5.8-13.3h2.7l5.2,12h-1.5l5.2-12h2.5l-5.8,13.3H125.1z"/>
	<path d="M135.5,80.6V67.4h2.5v11.2h6.9v2.1H135.5z"/>
	<path d="M147.6,80.6V67.4h2.5v13.3H147.6z"/>
	<path d="M162.9,78.6h7.5v2.1h-10V67.4h9.7v2.1h-7.2V78.6z M162.7,72.9h6.6v2h-6.6V72.9z"/>
	<path d="M172,80.6l6-13.3h2.4l6,13.3h-2.6l-5.1-12h1l-5.1,12H172z M174.8,77.6l0.7-1.9h7.2l0.7,1.9H174.8z"/>
	<path d="M193,80.8c-1,0-2-0.1-3-0.4c-0.9-0.3-1.7-0.7-2.3-1.1l0.9-1.9c0.5,0.4,1.2,0.8,2,1c0.8,0.3,1.6,0.4,2.4,0.4
		c0.7,0,1.3-0.1,1.7-0.2c0.4-0.2,0.7-0.4,0.9-0.6c0.2-0.3,0.3-0.6,0.3-0.9c0-0.4-0.1-0.7-0.4-1c-0.3-0.2-0.7-0.4-1.1-0.6
		s-1-0.3-1.5-0.4c-0.6-0.1-1.1-0.3-1.7-0.4c-0.6-0.2-1.1-0.4-1.5-0.7c-0.5-0.3-0.8-0.6-1.1-1.1c-0.3-0.5-0.4-1-0.4-1.7
		c0-0.7,0.2-1.4,0.6-2s1-1.1,1.8-1.4c0.8-0.4,1.8-0.5,3-0.5c0.8,0,1.6,0.1,2.4,0.3s1.5,0.5,2,0.9l-0.8,1.9c-0.6-0.4-1.2-0.6-1.8-0.8
		s-1.2-0.3-1.8-0.3c-0.7,0-1.2,0.1-1.7,0.2c-0.4,0.2-0.7,0.4-0.9,0.6s-0.3,0.6-0.3,0.9c0,0.4,0.1,0.7,0.4,1c0.3,0.2,0.7,0.4,1.1,0.6
		c0.5,0.1,1,0.3,1.5,0.4c0.6,0.1,1.1,0.3,1.7,0.4c0.6,0.2,1.1,0.4,1.5,0.6s0.8,0.6,1.1,1.1c0.3,0.5,0.4,1,0.4,1.7
		c0,0.7-0.2,1.4-0.6,2c-0.4,0.6-1,1.1-1.8,1.4C195.2,80.7,194.2,80.8,193,80.8z"/>
	<path d="M204.1,80.6V69.4h-4.4v-2.1H211v2.1h-4.4v11.2H204.1z"/>
	<path d="M221.7,84.3c-0.7-1.2-1.3-2.5-1.7-4c-0.4-1.5-0.6-3.1-0.6-4.9s0.2-3.4,0.6-4.9c0.4-1.5,1-2.9,1.7-4h2.3
		c-0.8,1.4-1.3,2.8-1.7,4.3c-0.4,1.4-0.5,3-0.5,4.6s0.2,3.2,0.5,4.6c0.4,1.4,0.9,2.9,1.7,4.3H221.7z"/>
	<path d="M226.9,80.6V67.4h2l5.8,9.7h-1.1l5.7-9.7h2l0,13.3h-2.3l0-9.6h0.5l-4.9,8.1h-1.1l-4.9-8.1h0.6v9.6H226.9z"/>
	<path d="M243.9,80.6l6-13.3h2.4l6,13.3h-2.6l-5.1-12h1l-5.1,12H243.9z M246.7,77.6l0.7-1.9h7.2l0.7,1.9H246.7z"/>
	<path d="M260.8,80.6V67.4h2l8.3,10.2h-1V67.4h2.4v13.3h-2l-8.3-10.2h1v10.2H260.8z"/>
	<path d="M276.9,80.6V67.4h5.5c1.2,0,2.2,0.2,3,0.6c0.8,0.4,1.5,0.9,1.9,1.6c0.5,0.7,0.7,1.5,0.7,2.5c0,1-0.2,1.8-0.7,2.5
		c-0.5,0.7-1.1,1.3-1.9,1.6c-0.8,0.4-1.8,0.6-3,0.6h-4.1l1.1-1.2v5H276.9z M279.4,75.9l-1.1-1.2h4c1.1,0,1.9-0.2,2.5-0.7
		c0.5-0.5,0.8-1.1,0.8-1.9c0-0.8-0.3-1.5-0.8-2c-0.6-0.5-1.4-0.7-2.5-0.7h-4l1.1-1.2V75.9z"/>
	<path d="M288.7,80.6l6-13.3h2.4l6,13.3h-2.6l-5.1-12h1l-5.1,12H288.7z M291.5,77.6l0.7-1.9h7.2l0.7,1.9H291.5z"/>
	<path d="M305.6,80.6V67.4h5.8c1.4,0,2.7,0.3,3.8,0.8c1.1,0.6,1.9,1.3,2.5,2.3c0.6,1,0.9,2.2,0.9,3.5c0,1.3-0.3,2.5-0.9,3.5
		c-0.6,1-1.5,1.8-2.5,2.3s-2.4,0.8-3.8,0.8H305.6z M308,78.6h3.2c1,0,1.9-0.2,2.6-0.6c0.7-0.4,1.3-0.9,1.7-1.6
		c0.4-0.7,0.6-1.5,0.6-2.4c0-0.9-0.2-1.7-0.6-2.4s-1-1.2-1.7-1.6c-0.7-0.4-1.6-0.6-2.6-0.6H308V78.6z"/>
	<path d="M319.9,80.6l6-13.3h2.4l6,13.3h-2.6l-5.1-12h1l-5.1,12H319.9z M322.7,77.6l0.7-1.9h7.2l0.7,1.9H322.7z"/>
	<path d="M337.7,84.3h-2.3c0.8-1.4,1.4-2.8,1.7-4.3c0.4-1.4,0.5-3,0.5-4.6s-0.2-3.2-0.5-4.6c-0.4-1.4-0.9-2.9-1.7-4.3h2.3
		c0.8,1.1,1.3,2.5,1.7,4c0.4,1.5,0.6,3.2,0.6,4.9s-0.2,3.4-0.6,4.9C339,81.8,338.4,83.2,337.7,84.3z"/>
</g>
</svg>
